<svg width="22" height="17" viewBox="0 0 22 17" fill="none" xmlns="http://www.w3.org/2000/svg">
<g clip-path="url(#clip0_15_261)">
<path d="M15.4 16.1H2.6C1.2 16.1 0 14.9 0 13.5V6.20001C0 4.80001 1.2 3.60001 2.6 3.60001H15.4C16.8 3.60001 18 4.80001 18 6.20001V13.5C18 14.9 16.8 16.1 15.4 16.1ZM2.6 5.60001C2.3 5.60001 2 5.90001 2 6.20001V13.5C2 13.8 2.3 14.1 2.6 14.1H15.4C15.7 14.1 16 13.8 16 13.5V6.20001C16 5.90001 15.7 5.60001 15.4 5.60001H2.6Z" fill="white"/>
<path d="M21.0001 12.1C20.4001 12.1 20.0001 11.7 20.0001 11.1V2.7C20.0001 2.3 19.8001 2 19.5001 2H4.1001C3.5001 2 3.1001 1.6 3.1001 1C3.1001 0.4 3.5001 0 4.1001 0H19.5001C20.9001 0 22.0001 1.2 22.0001 2.7V11.1C22.0001 11.6 21.6001 12.1 21.0001 12.1Z" fill="white"/>
<path d="M8.9998 13C7.19981 13 5.7998 11.6 5.7998 9.80001C5.7998 8.00001 7.19981 6.60001 8.9998 6.60001C10.7998 6.60001 12.1998 8.00001 12.1998 9.80001C12.1998 11.6 10.7998 13 8.9998 13ZM8.9998 8.70001C8.2998 8.70001 7.7998 9.20001 7.7998 9.90001C7.7998 10.6 8.2998 11 8.9998 11C9.69981 11 10.1998 10.5 10.1998 9.80001C10.1998 9.10001 9.69981 8.70001 8.9998 8.70001Z" fill="white"/>
<path d="M3.9002 10.5C4.2868 10.5 4.6002 10.1866 4.6002 9.80001C4.6002 9.41341 4.2868 9.10001 3.9002 9.10001C3.5136 9.10001 3.2002 9.41341 3.2002 9.80001C3.2002 10.1866 3.5136 10.5 3.9002 10.5Z" fill="white"/>
<path d="M14.0999 10.5C14.4865 10.5 14.7999 10.1866 14.7999 9.80001C14.7999 9.41341 14.4865 9.10001 14.0999 9.10001C13.7133 9.10001 13.3999 9.41341 13.3999 9.80001C13.3999 10.1866 13.7133 10.5 14.0999 10.5Z" fill="white"/>
</g>
<defs>
<clipPath id="clip0_15_261">
<rect width="22" height="17" fill="white"/>
</clipPath>
</defs>
</svg>
