<svg width="16" height="12" viewBox="0 0 16 12" fill="none" xmlns="http://www.w3.org/2000/svg">
<g clip-path="url(#clip0_15_310)">
<path fill-rule="evenodd" clip-rule="evenodd" d="M15.5234 6.05725C15.5234 5.64305 15.1876 5.30725 14.7734 5.30725H0.773438C0.359228 5.30725 0.0234375 5.64305 0.0234375 6.05725C0.0234375 6.47145 0.359228 6.80725 0.773438 6.80725H14.7734C15.1876 6.80725 15.5234 6.47145 15.5234 6.05725Z" fill="white"/>
<path fill-rule="evenodd" clip-rule="evenodd" d="M15.5234 1.05725C15.5234 0.643041 15.1876 0.307251 14.7734 0.307251H0.773438C0.359228 0.307251 0.0234375 0.643041 0.0234375 1.05725C0.0234375 1.47146 0.359228 1.80725 0.773438 1.80725H14.7734C15.1876 1.80725 15.5234 1.47146 15.5234 1.05725Z" fill="white"/>
<path fill-rule="evenodd" clip-rule="evenodd" d="M15.5234 11.0573C15.5234 10.6431 15.1876 10.3073 14.7734 10.3073H0.773438C0.359228 10.3073 0.0234375 10.6431 0.0234375 11.0573C0.0234375 11.4715 0.359228 11.8073 0.773438 11.8073H14.7734C15.1876 11.8073 15.5234 11.4715 15.5234 11.0573Z" fill="white"/>
</g>
<defs>
<clipPath id="clip0_15_310">
<rect width="16" height="12" fill="white"/>
</clipPath>
</defs>
</svg>
