<svg width="12" height="13" viewBox="0 0 12 13" fill="none" xmlns="http://www.w3.org/2000/svg">
<g clip-path="url(#clip0_26_468)">
<path d="M2.36362 3.53241C2.22014 3.49356 2.10089 3.39131 2.03811 3.25331C1.97533 3.11531 1.97553 2.95583 2.03863 2.81799L3.1458 0.399727C3.22831 0.219512 3.40495 0.104551 3.59895 0.104798C3.79296 0.105044 3.96932 0.220457 4.05139 0.400876L4.53981 1.47456C4.55727 1.46752 4.5753 1.46141 4.59385 1.45631C7.49207 0.659296 10.4711 2.42449 11.2477 5.39898C12.0243 8.37352 10.3043 11.4309 7.40607 12.2279C4.50787 13.0249 1.52884 11.2597 0.75226 8.28525C0.505314 7.33933 0.510867 6.38363 0.72716 5.49497C0.79408 5.22006 1.06552 5.05284 1.33343 5.12153C1.60134 5.19016 1.76427 5.46877 1.69735 5.74375C1.52115 6.46765 1.51629 7.24628 1.71819 8.01964C2.35183 10.4466 4.78253 11.8869 7.14727 11.2366C9.51207 10.5863 10.9154 8.09162 10.2817 5.66466C9.65847 3.27731 7.29647 1.8447 4.96873 2.41742L5.46153 3.50073C5.5436 3.68115 5.51653 3.89402 5.39213 4.04682C5.2678 4.19963 5.06847 4.26479 4.88093 4.214L2.36362 3.53241Z" fill="white"/>
</g>
<defs>
<clipPath id="clip0_26_468">
<rect width="12" height="13" fill="white"/>
</clipPath>
</defs>
</svg>
